# xmcd
#
# Track frame offsets: 
#        150
#        16204
#        29184
#        38871
#        50723
#        61154
#        70966
#        83139
#        98135
#        112017
#
# Disc length: 1811 seconds
#
# Revision: 0
# Processed by: cddbd v1.5.2PL0 Copyright (c) Steve Scherf et al.
# Submitted via: ExactAudioCopy v1.0b3
#
DISCID=8807110a
DTITLE=Radiotones - Gravel Road
DYEAR=1999
DGENRE=Blues
TTITLE0=Gravel Road
TTITLE1=Pomegranate Heart
TTITLE2=Devil Got My Woman
TTITLE3=Journeytime Is Over
TTITLE4=You Oughta Know
TTITLE5=Where Were You 
TTITLE6=Jitterbug Swing
TTITLE7=Come On In My Kitchen
TTITLE8=Good Friend Blues
TTITLE9=This Is Hip
EXTD=
EXTT0=
EXTT1=
EXTT2=
EXTT3=
EXTT4=
EXTT5=
EXTT6=
EXTT7=
EXTT8=
EXTT9=
PLAYORDER=
